<?xml version="1.0" encoding="UTF-8"?>
<svg width="640" height="480" xmlns="http://www.w3.org/2000/svg">
 <title>blue paw print</title>
 <metadata id="metadata1655">image/svg+xml</metadata>
 <g>
  <title>Layer 1</title>
  <g id="layer1" transform="rotate(-25 295.422393798828,228.86003112792966) ">
   <path id="path1575" fill="#00ff00" d="m371.781006,25c-0.882019,0.011259 -1.787994,0.054541 -2.687012,0.125c-35.823975,6.1835 -55.520996,44.064392 -58.375,77.468811c-4.17099,30.311188 9.187012,69.270187 42.468994,76.062195c4.827026,0.918991 9.843018,0.498993 14.562012,-0.781006c40.076996,-13.438004 58.011993,-60.903107 52.218994,-100.218704c-1.68399,-25.392395 -20.825989,-53.005236 -48.187988,-52.656296zm-151.875,1.625c-22.275009,0.54678 -39.626297,23.138397 -43.156006,44.375c-7.440903,42.07431 11.698303,94.352005 55.531006,107.656006c4.105988,0.89299 8.352997,0.985001 12.5,0.343994c29.626984,-4.936996 42.177002,-38.153992 40.937988,-64.968689c-0.891998,-35.372597 -19.265991,-76.273209 -56,-86.218811c-3.358002,-0.890409 -6.630997,-1.26561 -9.812988,-1.1875zm248.937988,119.5c-38.535004,2.304993 -64.953003,40.753998 -68.718994,76.656006c-5.100006,25.893997 8.704987,60.527008 38.25,62.593994c41.196991,-0.507996 69.300995,-44.529007 70.468994,-82.406006c2.606018,-25.051987 -12.151001,-55.460999 -40,-56.843994zm-337.281494,8.531006c-16.393997,-0.141006 -32.517578,9.679001 -37.875,26.343994c-14.292702,44.578995 14.408897,101.037994 61.625,110.406006c19.705597,3.372009 37.020508,-11.760986 41.906509,-29.968018c10.353989,-38.944992 -10.91362,-84.165985 -46.906509,-101.843994c-5.863907,-3.291 -12.334991,-4.882996 -18.75,-4.937988zm172.750488,79.937988c-32.139984,0.068008 -64.78299,16.378006 -85.593994,40.656006c-22.477997,28.296997 -40.890503,61.22699 -48.093994,96.937988c-8.751404,25.706024 11.083405,55.290009 38.563004,55.468018c33.057999,0.919006 61.470016,-21.78302 94.343002,-23.468018c27.890015,-4.251984 52.863007,10.255005 77.937988,19.75c21.348999,9.131012 50.850006,5.631012 61.75,-17.343994c8.572998,-23.419006 -4.04599,-48.389984 -14.5,-69.187988c-21.321991,-33.757019 -44.165009,-69.235992 -79.125,-90.312012c-14.013,-8.685989 -29.585999,-12.533997 -45.281006,-12.5z"/>
  </g>
 </g>
</svg>